<svg width="534" height="512" viewBox="0 0 534 512" fill="none" xmlns="http://www.w3.org/2000/svg">
<g clip-path="url(#clip0_1_18)">
<path d="M8.58604 147.796C-8.2316 130.977 9.29713 86.181 47.7382 47.7399C86.1793 9.29877 130.976 -8.23105 147.796 8.58659L182.463 43.2535L43.254 182.462L8.58604 147.796Z" fill="#D7D7FD"/>
<path d="M27.4932 235.934C2.31102 210.752 28.5532 143.676 86.117 86.1175C143.681 28.5592 210.751 2.31156 235.933 27.4937L287.841 79.4016L79.4011 287.842L27.4932 235.934Z" fill="#E9E9FD"/>
<path d="M229.179 229.217C286.738 171.658 312.985 104.583 287.803 79.4006C262.621 54.2184 195.546 80.4652 137.986 138.025C80.4269 195.584 54.1801 262.659 79.3623 287.841C104.545 313.024 171.62 286.777 229.179 229.217Z" fill="#D7D7FD"/>
<path d="M266.885 326.77L158.965 218.849C158.076 165.554 218.477 159.337 218.477 159.337L331.727 272.585L266.885 326.77Z" fill="#C8C5FD"/>
<path d="M228.194 436.634C203.012 411.452 229.259 344.377 286.818 286.818C344.378 229.258 411.452 203.012 436.635 228.194L488.542 280.103L280.102 488.543L228.194 436.634Z" fill="#E9E9FD"/>
<path d="M429.837 429.919C487.396 372.359 513.643 305.284 488.461 280.102C463.279 254.92 396.203 281.166 338.644 338.726C281.085 396.285 254.838 463.36 280.02 488.543C305.202 513.725 372.278 487.478 429.837 429.919Z" fill="#D7D7FD"/>
<path d="M329.537 468.744C312.719 451.927 330.248 407.131 368.689 368.69C407.13 330.248 451.926 312.719 468.745 329.537L503.412 364.204L364.204 503.412L329.537 468.744Z" fill="#E9E9FD"/>
<path d="M464.167 464.26C502.608 425.818 520.137 381.022 503.319 364.204C486.501 347.386 441.704 364.915 403.263 403.356C364.822 441.797 347.293 486.593 364.111 503.411C380.929 520.23 425.726 502.701 464.167 464.26Z" fill="#D7D7FD"/>
<path d="M504.959 362.657L490.447 348.145C503.594 317.265 503.489 291.95 490.093 278.553C490.053 278.513 490.011 278.477 489.971 278.443L438.18 226.648C425.35 213.815 402.226 213.032 373.07 224.441C355.404 231.353 336.741 242.26 318.437 256.203L259.812 197.577C298.465 146.817 310.381 98.8437 289.392 77.8526C289.36 77.8198 289.325 77.7891 289.291 77.7574L237.48 25.9469C224.65 13.1146 201.527 12.3302 172.369 23.7392C170.865 24.3334 169.37 24.9486 167.884 25.5847L149.341 7.03973C140.556 -1.74597 124.836 -2.32796 105.08 5.40424C85.9058 12.9089 64.9923 27.392 46.1924 46.193C27.3925 64.994 12.9094 85.9053 5.40363 105.08C-2.32638 124.837 -1.74548 140.556 7.04459 149.342L25.5907 167.888C24.9532 169.373 24.338 170.869 23.7452 172.373C12.3361 201.529 13.1205 224.654 25.9517 237.485L77.7524 289.286C77.7885 289.322 77.8213 289.36 77.8618 289.395C84.7637 296.297 94.5898 299.637 106.486 299.637C130.628 299.637 163.278 285.853 197.176 260.145L255.881 318.863C242.097 337.03 231.296 355.541 224.437 373.07C213.028 402.226 213.811 425.35 226.643 438.181L278.434 489.972C278.473 490.011 278.51 490.053 278.543 490.092C285.303 496.852 295.094 500.23 307.104 500.23C318.899 500.23 332.836 496.961 348.137 490.447L362.652 504.959C367.341 509.647 374.001 512 382.198 512C389.362 512 397.7 510.202 406.916 506.596C426.089 499.093 447.002 484.607 465.802 465.807C484.602 447.007 499.088 426.096 506.592 406.921C514.326 387.162 513.745 371.443 504.959 362.657ZM10.1329 146.248C2.65338 138.767 2.42146 124.713 9.47649 106.674C16.7634 88.0495 30.9009 67.6688 49.2829 49.2868C67.6649 30.9047 88.05 16.7662 106.675 9.47929C124.712 2.42097 138.767 2.6529 146.247 10.1357L163.599 27.4872C137.502 39.3962 109.775 59.3699 84.5701 84.5728C59.3649 109.776 39.389 137.505 27.4855 163.601L10.1329 146.248ZM29.04 234.387C17.5139 222.86 17.0785 201.401 27.8148 173.964C28.5543 172.076 29.3463 170.175 30.1777 168.266C30.1898 168.238 30.204 168.213 30.2149 168.184C41.7235 141.768 61.9226 113.407 87.6638 87.6677C113.405 61.9287 141.762 41.7307 168.18 30.2199C168.216 30.2068 168.249 30.1893 168.284 30.174C170.189 29.3447 172.085 28.5593 173.973 27.8175C201.41 17.0824 222.873 17.5167 234.395 29.0439L274.806 69.4563C261.811 65.692 244.503 67.7366 224.281 75.6482C195.709 86.8297 164.529 108.432 136.482 136.473C108.436 164.514 86.8346 195.699 75.6575 224.271C67.7458 244.488 65.7023 261.8 69.4656 274.796L29.04 234.387ZM80.9665 286.317L80.949 286.295L80.8462 286.192C69.4196 274.641 69.017 253.23 79.7227 225.871C90.6897 197.848 111.945 167.201 139.572 139.572C167.199 111.944 197.849 90.6903 225.871 79.7233C253.234 69.0144 274.652 69.418 286.201 80.8555L286.293 80.954C286.299 80.96 286.306 80.9655 286.313 80.9704C305.292 99.9891 293.083 146.442 256.686 194.459L220.021 157.794C219.792 157.563 219.514 157.387 219.207 157.278C218.901 157.169 218.574 157.13 218.25 157.165C207.423 158.611 196.948 162.008 187.333 167.192C166.965 178.357 156.397 196.234 156.774 218.89C156.784 219.457 157.013 219.999 157.414 220.401L194.033 257.019C146.188 293.139 99.9076 305.218 80.9665 286.317ZM161.143 217.933C161.064 197.183 170.542 181.427 189.325 171.088C198.175 166.351 207.767 163.157 217.69 161.643L314.955 258.911C293.984 275.421 275.059 294.376 258.582 315.374L161.143 217.933ZM229.741 435.086C218.214 423.56 217.779 402.102 228.516 374.664C235.408 357.057 246.362 338.414 260.406 320.133C260.49 320.043 260.566 319.946 260.633 319.844C277.682 297.829 297.434 278.047 319.422 260.964C319.55 260.884 319.668 260.79 319.776 260.685C338.172 246.509 356.943 235.449 374.665 228.514C402.101 217.779 423.558 218.214 435.087 229.741L475.501 270.154C462.506 266.392 445.198 268.436 424.98 276.347C396.412 287.528 365.23 309.13 337.178 337.172C309.127 365.214 287.529 396.405 276.353 424.974C268.442 445.189 266.398 462.498 270.16 475.495L229.741 435.086ZM281.672 487.021C281.663 487.013 281.658 487.003 281.65 486.994L281.541 486.885C270.124 475.33 269.726 453.924 280.426 426.577C291.392 398.557 312.647 367.908 340.275 340.274C367.904 312.639 398.56 291.389 426.579 280.425C453.928 269.723 475.332 270.122 486.886 281.538L486.996 281.648C487.004 281.656 487.013 281.663 487.022 281.67C498.843 293.523 498.837 316.425 487.109 344.805L470.292 327.987C461.507 319.203 445.787 318.622 426.028 326.346C406.856 333.85 385.943 348.335 367.142 367.135C348.341 385.935 333.856 406.846 326.353 426.023C318.622 445.78 319.204 461.499 327.994 470.286L344.811 487.103C316.427 498.837 293.527 498.844 281.672 487.022V487.021ZM331.084 467.196C323.602 459.716 323.369 445.66 330.427 427.622C337.715 408.998 351.852 388.617 370.235 370.235C388.618 351.853 408.999 337.715 427.621 330.428C445.658 323.37 459.714 323.6 467.197 331.084L486.271 350.154L492.37 356.254C483.872 354.597 473.078 356.175 460.695 361.019C441.522 368.52 420.61 383.007 401.809 401.807C383.008 420.607 368.523 441.519 361.02 460.693C356.175 473.074 354.598 483.87 356.255 492.368L331.084 467.196ZM502.52 405.325C495.233 423.947 481.096 444.328 462.713 462.712C444.33 481.096 423.949 495.232 405.325 502.519C387.29 509.578 373.231 509.345 365.751 501.862C358.27 494.379 358.037 480.325 365.094 462.287C372.381 443.664 386.52 423.283 404.903 404.9C423.286 386.517 443.665 372.38 462.289 365.092C471.033 361.671 478.839 359.963 485.417 359.963C492.409 359.963 498.009 361.894 501.864 365.748C509.347 373.233 509.578 387.287 502.52 405.326V405.325Z" fill="#4200DD"/>
</g>
<defs>
<clipPath id="clip0_1_18">
<rect width="534" height="512" fill="white"/>
</clipPath>
</defs>
</svg>
